<?xml version="1.0" encoding="UTF-8" standalone="no"?>
<!DOCTYPE svg PUBLIC "-//W3C//DTD SVG 1.1//EN" "http://www.w3.org/Graphics/SVG/1.1/DTD/svg11.dtd">
<svg width="100%" height="100%" viewBox="0 0 470 128" version="1.1" xmlns="http://www.w3.org/2000/svg" xmlns:xlink="http://www.w3.org/1999/xlink" xml:space="preserve" xmlns:serif="http://www.serif.com/" style="fill-rule:evenodd;clip-rule:evenodd;stroke-linejoin:round;stroke-miterlimit:2;">
    <g transform="matrix(1,0,0,1,31.0986,-10.7216)">
        <g transform="matrix(83.3333,0,0,83.3333,108.123,103.651)">
            <path d="M0.694,-0.482C0.672,-0.643 0.548,-0.737 0.386,-0.737C0.196,-0.737 0.053,-0.599 0.053,-0.364C0.053,-0.129 0.195,0.01 0.386,0.01C0.559,0.01 0.674,-0.102 0.694,-0.241L0.561,-0.241C0.545,-0.156 0.475,-0.108 0.388,-0.108C0.27,-0.108 0.186,-0.197 0.186,-0.364C0.186,-0.528 0.27,-0.619 0.388,-0.619C0.477,-0.619 0.546,-0.569 0.561,-0.482L0.694,-0.482Z" style="fill-rule:nonzero;"/>
        </g>
        <g transform="matrix(83.3333,0,0,83.3333,170.091,103.651)">
            <path d="M0.304,0.011C0.464,0.011 0.565,-0.102 0.565,-0.271C0.565,-0.44 0.464,-0.553 0.304,-0.553C0.144,-0.553 0.043,-0.44 0.043,-0.271C0.043,-0.102 0.144,0.011 0.304,0.011ZM0.305,-0.092C0.216,-0.092 0.173,-0.171 0.173,-0.271C0.173,-0.371 0.216,-0.451 0.305,-0.451C0.392,-0.451 0.435,-0.371 0.435,-0.271C0.435,-0.171 0.392,-0.092 0.305,-0.092Z" style="fill-rule:nonzero;"/>
        </g>
        <g transform="matrix(83.3333,0,0,83.3333,219.185,103.651)">
            <path d="M0.146,0.205C0.246,0.205 0.304,0.153 0.335,0.066L0.553,-0.545L0.417,-0.545L0.29,-0.134L0.285,-0.134L0.159,-0.545L0.023,-0.545L0.221,0.011L0.21,0.041C0.186,0.103 0.148,0.107 0.092,0.091L0.062,0.191C0.08,0.198 0.111,0.205 0.146,0.205Z" style="fill-rule:nonzero;"/>
        </g>
        <g transform="matrix(83.3333,0,0,83.3333,265.616,103.651)">
            <path d="M0.304,0.011C0.464,0.011 0.565,-0.102 0.565,-0.271C0.565,-0.44 0.464,-0.553 0.304,-0.553C0.144,-0.553 0.043,-0.44 0.043,-0.271C0.043,-0.102 0.144,0.011 0.304,0.011ZM0.305,-0.092C0.216,-0.092 0.173,-0.171 0.173,-0.271C0.173,-0.371 0.216,-0.451 0.305,-0.451C0.392,-0.451 0.435,-0.371 0.435,-0.271C0.435,-0.171 0.392,-0.092 0.305,-0.092Z" style="fill-rule:nonzero;"/>
        </g>
        <g transform="matrix(83.3333,0,0,83.3333,316.279,103.651)">
            <path d="M0.338,-0.545L0.231,-0.545L0.231,-0.676L0.102,-0.676L0.102,-0.545L0.025,-0.545L0.025,-0.446L0.102,-0.446L0.102,-0.143C0.102,-0.04 0.176,0.01 0.273,0.007C0.309,0.006 0.335,-0.001 0.348,-0.005L0.327,-0.106C0.32,-0.104 0.305,-0.101 0.289,-0.101C0.257,-0.101 0.231,-0.112 0.231,-0.164L0.231,-0.446L0.338,-0.446L0.338,-0.545Z" style="fill-rule:nonzero;"/>
        </g>
        <g transform="matrix(83.3333,0,0,83.3333,347.47,103.651)">
            <path d="M0.308,0.011C0.435,0.011 0.522,-0.051 0.545,-0.146L0.425,-0.16C0.407,-0.114 0.365,-0.089 0.309,-0.089C0.226,-0.089 0.171,-0.144 0.17,-0.238L0.55,-0.238L0.55,-0.277C0.55,-0.468 0.435,-0.553 0.301,-0.553C0.145,-0.553 0.043,-0.438 0.043,-0.27C0.043,-0.098 0.143,0.011 0.308,0.011ZM0.17,-0.324C0.174,-0.394 0.226,-0.452 0.303,-0.452C0.376,-0.452 0.426,-0.398 0.427,-0.324L0.17,-0.324Z" style="fill-rule:nonzero;"/>
        </g>
    </g>
    <g transform="matrix(0.927928,-0.927647,0.540492,0.540655,-65.4858,71.032)">
        <path d="M74.784,24.504L127.591,115.504L21.977,115.504L74.784,24.504Z" style="fill:rgb(0,144,252);"/>
    </g>
    <g transform="matrix(0.637168,-0.64484,0.377621,0.373128,-9.5751,81.048)">
        <path d="M74.784,24.504L127.591,115.504L21.977,115.504L74.784,24.504Z" style="fill:rgb(0,106,188);"/>
    </g>
</svg>
